#!OML:ASF F:\VICON\USERDATA\INSTALL\rory3\rory3.ASF
:FULLY-SPECIFIED
:DEGREES
833
root -0.847332 14.7104 14.1846 -7.25249 20.9475 31.7573
lowerback -13.4206 -8.39559 8.30089
upperback -9.74046 -11.533 6.01625
thorax -3.33964 -5.9064 0.661269
lowerneck -1.4936 -11.8663 -12.4516
upperneck 39.0627 -14.9332 -7.30365
head 14.162 -9.16255 -2.69898
rclavicle -5.88403e-014 8.90555e-014
rhumerus -30.1707 16.2306 -6.36591
rradius 39.5909
rwrist -2.30965
rhand -19.5264 -46.0054
rfingers 7.12502
rthumb -173.203 824.124
lclavicle -5.88403e-014 8.90555e-014
lhumerus 16.63 20.514 26.1391
lradius 24.813
lwrist 47.1796
lhand -35.4456 -9.13608
lfingers 7.12502
lthumb -8.57484 20.6698
rfemur -58.0239 -5.96197 34.3949
rtibia 65.1609
rfoot -2.20611 -23.118
rtoes 24.6404
lfemur -16.6244 10.2469 -24.9902
ltibia 102.104
lfoot -18.2782 12.1804
ltoes -3.67834
834
root -0.860973 14.7258 14.1338 -6.89183 20.8897 31.9629
lowerback -13.2307 -8.40219 8.32509
upperback -10.0211 -11.491 6.13758
thorax -3.72469 -5.89658 0.843015
lowerneck -1.20965 -11.7664 -12.405
upperneck 39.0978 -14.7594 -7.53897
head 14.0869 -9.11444 -2.74792
rclavicle -3.81667e-014 -1.27222e-014
rhumerus -30.2306 15.94 -5.84929
rradius 39.6766
rwrist -2.28289
rhand -18.9869 -48.218
rfingers 7.12502
rthumb -172.682 821.929
lclavicle -3.81667e-014 -1.27222e-014
lhumerus 15.6265 19.3237 25.3993
lradius 25.1668
lwrist 48.3126
lhand -34.8552 -8.75448
lfingers 7.12502
lthumb -8.00502 21.0739
rfemur -58.0123 -5.53526 34.3047
rtibia 65.0655
rfoot -2.09054 -23.1768
rtoes 25.0014
lfemur -17.005 11.3877 -24.9373
ltibia 102.036
lfoot -17.049 13.0663
ltoes -7.48405
835
root -0.874741 14.7458 14.0894 -6.467 21.0826 32.5359
lowerback -13.2079 -8.52625 7.98766
upperback -10.2267 -11.6018 6.11291
thorax -3.89816 -5.94547 1.00774
lowerneck -0.924465 -11.5734 -12.3121
upperneck 39.1206 -14.4698 -7.69166
head 14.006 -8.99922 -2.75484
rclavicle -7.95139e-015 6.67916e-014
rhumerus -30.4741 16.0298 -5.3
rradius 39.8195
rwrist -2.98374
rhand -19.375 -48.6496
rfingers 7.12502
rthumb -173.057 821.484
lclavicle -7.95139e-015 6.67916e-014
lhumerus 15.0872 19.4418 25.235
lradius 25.0546
lwrist 48.1194
lhand -35.128 -9.38183
lfingers 7.12502
lthumb -8.26834 20.4364
rfemur -58.0072 -5.41912 33.794
rtibia 64.999
rfoot -1.79629 -23.1508
rtoes 25.0914
lfemur -16.6785 11.7879 -25.3199
ltibia 101.777
lfoot -17.0727 13.1354
ltoes -6.44641
836
root -0.890498 14.7709 14.0509 -6.24375 21.517 32.971
lowerback -13.2347 -8.77479 7.62639
upperback -10.0652 -11.9116 6.22312
thorax -3.61618 -6.0697 1.24806
lowerneck -2.18505 -11.6965 -12.4148
upperneck 39.5522 -14.4058 -7.85741
head 14.474 -8.99763 -2.95475
rclavicle 2.54444e-014 1.27222e-014
rhumerus -30.2505 15.1933 -4.70258
rradius 39.7877
rwrist -3.42585
rhand -19.362 -48.877
rfingers 7.12502
rthumb -173.044 821.257
lclavicle 2.54444e-014 1.27222e-014
lhumerus 15.6674 22.8493 26.598
lradius 24.011
lwrist 44.6923
lhand -35.2221 -10.3254
lfingers 7.12502
lthumb -8.3591 19.4892
rfemur -57.8249 -5.62787 33.3315
rtibia 64.903
rfoot -1.83696 -23.0506
rtoes 25.2494
lfemur -15.3987 11.4603 -25.3496
ltibia 101.33
lfoot -18.9092 11.2743
ltoes 1.17994
837
root -0.914326 14.7983 14.016 -6.18857 21.6699 32.8629
lowerback -13.2141 -8.9607 7.78124
upperback -10.4274 -12.1205 6.35174
thorax -4.03848 -6.1884 1.34239
lowerneck -0.677233 -11.4523 -12.7181
upperneck 39.2689 -14.2966 -7.69514
head 14.0734 -8.97982 -2.67416
rclavicle -1.27222e-014 1.145e-013
rhumerus -30.4453 15.6289 -4.26704
rradius 40.1983
rwrist -3.79761
rhand -19.0962 -48.8695
rfingers 7.12502
rthumb -172.788 821.273
lclavicle -1.27222e-014 1.145e-013
lhumerus 15.1205 23.7332 26.7628
lradius 23.566
lwrist 42.82
lhand -34.6435 -10.4139
lfingers 7.12502
lthumb -7.80074 19.4222
rfemur -57.6204 -5.49508 33.4419
rtibia 64.7466
rfoot -1.66518 -22.9658
rtoes 24.6078
lfemur -15.803 12.8427 -24.911
ltibia 101.351
lfoot -16.5913 13.5202
ltoes -7.77879
